<?xml version="1.0" encoding="utf-8"?>
<!-- Svg Vector Icons : http://www.onlinewebfonts.com/icon -->
<!DOCTYPE svg PUBLIC "-//W3C//DTD SVG 1.1//EN" "http://www.w3.org/Graphics/SVG/1.1/DTD/svg11.dtd">
<svg version="1.1" xmlns="http://www.w3.org/2000/svg" xmlns:xlink="http://www.w3.org/1999/xlink" x="0px" y="0px" viewBox="0 0 1000 1000" enable-background="new 0 0 1000 1000" xml:space="preserve">
<metadata> Svg Vector Icons : http://www.onlinewebfonts.com/icon </metadata>
<g><path d="M839.7,557.8v187.4c0,46.8-16.6,86.7-49.8,119.9c-33.2,33.2-73.2,49.8-119.9,49.8H179.7c-46.8,0-86.7-16.6-119.9-49.8C26.6,831.9,10,791.9,10,745.2V254.8c0-46.8,16.6-86.7,49.8-119.9c33.2-33.2,73.2-49.8,119.9-49.8H670c24.8,0,47.8,4.9,69,14.7c5.9,2.8,9.4,7.3,10.6,13.5c1.2,6.7-0.6,12.4-5.3,17.1l-28.9,28.9c-3.9,3.9-8.4,5.9-13.5,5.9c-1.2,0-2.9-0.4-5.3-1.2c-9-2.4-17.9-3.6-26.5-3.6H179.8c-25.9,0-48.1,9.2-66.6,27.7s-27.7,40.7-27.7,66.6v490.3c0,25.9,9.2,48.1,27.7,66.6c18.5,18.5,40.7,27.7,66.6,27.7h490.3c25.9,0,48.1-9.2,66.6-27.7c18.5-18.5,27.7-40.7,27.7-66.6V595.5c0-5.1,1.8-9.4,5.3-12.9l37.7-37.7c3.9-3.9,8.4-5.9,13.5-5.9c2.4,0,4.7,0.6,7.1,1.8C835.8,543.9,839.8,549.6,839.7,557.8L839.7,557.8z M975.9,269.6L496.2,749.3c-9.4,9.4-20.6,14.1-33.6,14.1c-13,0-24.2-4.7-33.6-14.1L175.6,495.9c-9.4-9.4-14.1-20.6-14.1-33.6c0-13,4.7-24.2,14.1-33.6l64.8-64.8c9.4-9.4,20.6-14.1,33.6-14.1s24.2,4.7,33.6,14.1l155,155l381.3-381.3c9.4-9.4,20.6-14.1,33.6-14.1s24.2,4.7,33.6,14.1l64.8,64.8c9.4,9.4,14.1,20.6,14.1,33.6C990,249,985.3,260.2,975.9,269.6L975.9,269.6z"/></g>
</svg>